<svg xmlns="http://www.w3.org/2000/svg" viewBox="0 0 303.38 125.19"><defs><style>.cls-1,.cls-4,.cls-5,.cls-6{fill:none;}.cls-1,.cls-2{stroke:#a9a9a9;}.cls-1,.cls-4,.cls-5,.cls-6,.cls-9{stroke-linecap:round;}.cls-1{stroke-linejoin:round;}.cls-1,.cls-2,.cls-9{stroke-width:3px;}.cls-2{fill:#1d1e1d;}.cls-2,.cls-9{stroke-miterlimit:10;}.cls-3{fill:#a9a9a9;}.cls-4,.cls-5,.cls-6{stroke:#aaa;stroke-linejoin:bevel;stroke-width:2px;}.cls-5{stroke-dasharray:6.01 6.01;}.cls-6{stroke-dasharray:5.88 5.88;}.cls-7{fill:#7c7c7c;}.cls-8{fill:#aaa;}.cls-9{fill:#fff;stroke:#7c7c7c;}</style></defs><g id="Capa_2" data-name="Capa 2"><g id="Capa_1-2" data-name="Capa 1"><g id="cactus"><path id="brazo" class="cls-1" d="M228.3,57a4.76,4.76,0,0,1-4.76-4.76V39.1a4.76,4.76,0,1,1,9.52,0v8.36H242A4.77,4.77,0,0,1,242,57H228.3Z"/><path id="brazo-2" data-name="brazo" class="cls-1" d="M286,53a4.77,4.77,0,0,1,4.77,4.77V70.92a4.77,4.77,0,1,1-9.53,0V62.56h-8.89a4.77,4.77,0,0,1,0-9.53H286Z"/><path id="cactus-2" data-name="cactus" class="cls-2" d="M272.09,86v-62c0-8.59-6.3-15.56-14.07-15.56s-14.08,7-14.08,15.56V86Z"/><path class="cls-3" d="M250.48,54.28a1.25,1.25,0,0,0,0-2.5,1.25,1.25,0,0,0,0,2.5Z"/><g id="dots"><path class="cls-3" d="M250.32,23.43a1.25,1.25,0,0,0,0-2.5,1.25,1.25,0,0,0,0,2.5Z"/><path class="cls-3" d="M258.6,37.76v.15a1,1,0,0,0,.11.48.9.9,0,0,0,.26.4,1,1,0,0,0,.4.26.89.89,0,0,0,.48.11l.34,0a1.23,1.23,0,0,0,.55-.32l.19-.25a1.19,1.19,0,0,0,.17-.63v-.15a1,1,0,0,0-.1-.48,1.08,1.08,0,0,0-.66-.66.91.91,0,0,0-.49-.11l-.33,0a1.33,1.33,0,0,0-.55.32l-.2.26a1.24,1.24,0,0,0-.17.63Z"/><path class="cls-3" d="M264.24,26.6a1.25,1.25,0,0,0,0-2.5,1.25,1.25,0,0,0,0,2.5Z"/><path class="cls-3" d="M250.63,35h-.15a1,1,0,0,0-.49.11,1,1,0,0,0-.4.26,1,1,0,0,0-.26.4,1,1,0,0,0-.1.48l0,.34a1.33,1.33,0,0,0,.32.55l.26.19a1.15,1.15,0,0,0,.63.17h.15a.89.89,0,0,0,.48-.1,1.15,1.15,0,0,0,.66-.66,1,1,0,0,0,.11-.49l0-.33a1.23,1.23,0,0,0-.32-.55l-.25-.19a1.31,1.31,0,0,0-.63-.18Z"/><path class="cls-3" d="M267.11,59.21a1.25,1.25,0,0,0,0-2.5,1.25,1.25,0,0,0,0,2.5Z"/><path class="cls-3" d="M256.07,66.08a1.25,1.25,0,0,0,0-2.5,1.25,1.25,0,0,0,0,2.5Z"/><path class="cls-3" d="M252,75v-.15a.89.89,0,0,0-.11-.48,1,1,0,0,0-.26-.4.9.9,0,0,0-.4-.26,1,1,0,0,0-.48-.11l-.33.05a1.21,1.21,0,0,0-.56.32l-.19.25a1.29,1.29,0,0,0-.17.63V75a.91.91,0,0,0,.11.49,1.08,1.08,0,0,0,.66.66,1,1,0,0,0,.48.1l.33,0a1.27,1.27,0,0,0,.55-.32l.2-.26A1.24,1.24,0,0,0,252,75Z"/><path class="cls-3" d="M264.24,81.76a1.25,1.25,0,0,0,0-2.5,1.25,1.25,0,0,0,0,2.5Z"/><path class="cls-3" d="M265.75,46.91a1.25,1.25,0,0,0,0-2.5,1.25,1.25,0,0,0,0,2.5Z"/><path class="cls-3" d="M259.85,16a1.25,1.25,0,0,0,0-2.5,1.25,1.25,0,0,0,0,2.5Z"/></g><path class="cls-3" d="M236.26,41.73h7.11a1.25,1.25,0,0,0,0-2.5h-7.11A1.26,1.26,0,0,0,235,40.48a1.27,1.27,0,0,0,1.25,1.25Z"/><path class="cls-3" d="M272.54,25l6.87-1.81a1.25,1.25,0,1,0-.66-2.41l-6.88,1.81a1.25,1.25,0,0,0,.67,2.41Z"/><path class="cls-3" d="M238.22,70.92h5.15a1.25,1.25,0,0,0,0-2.5h-5.15a1.25,1.25,0,0,0,0,2.5Z"/><path class="cls-3" d="M272.09,79.69h3.55a1.26,1.26,0,0,0,1.25-1.25,1.28,1.28,0,0,0-1.25-1.25h-3.55a1.25,1.25,0,0,0,0,2.5Z"/><path class="cls-3" d="M273.06,46.91h7.11a1.26,1.26,0,0,0,1.25-1.25,1.28,1.28,0,0,0-1.25-1.25h-7.11a1.25,1.25,0,0,0,0,2.5Z"/><path class="cls-3" d="M236.18,17.86l6.61,2.62a1.25,1.25,0,0,0,1.53-.87,1.29,1.29,0,0,0-.87-1.54l-6.61-2.62a1.26,1.26,0,0,0-1.54.88,1.28,1.28,0,0,0,.88,1.53Z"/><path class="cls-3" d="M258.15,1.25V8.36a1.25,1.25,0,1,0,2.5,0V1.25a1.25,1.25,0,0,0-2.5,0Z"/></g><path class="cls-4" d="M31.72,31.33a23,23,0,0,1,2.8-1.08"/><path class="cls-5" d="M40.39,29c19.33-2.24,50.35,9.61,50.34,50.29"/><path class="cls-4" d="M90.68,82.33c0,1-.09,2-.16,3q.41-1.48.87-2.88"/><path class="cls-6" d="M93.55,77c8.88-19.25,25.75-22.89,34.7-23.39"/><path class="cls-4" d="M131.18,53.54a26.86,26.86,0,0,1,3,.17"/><path class="cls-7" d="M42.61,100.33a1.25,1.25,0,0,0,0-2.5,1.25,1.25,0,0,0,0,2.5Z"/><path class="cls-7" d="M72.49,92.05a1.25,1.25,0,0,0,0-2.5,1.25,1.25,0,0,0,0,2.5Z"/><path class="cls-7" d="M13.8,97.94a1.25,1.25,0,0,0,0-2.5,1.25,1.25,0,0,0,0,2.5Z"/><path class="cls-7" d="M80.6,112a1.25,1.25,0,0,0,0-2.5,1.25,1.25,0,0,0,0,2.5Z"/><path class="cls-7" d="M63.79,109.42a1.25,1.25,0,0,0,0-2.5,1.25,1.25,0,0,0,0,2.5Z"/><path class="cls-7" d="M99.82,95.52a1.25,1.25,0,0,0,0-2.5,1.25,1.25,0,0,0,0,2.5Z"/><path class="cls-7" d="M106.08,114.05a1.25,1.25,0,0,0,0-2.5,1.25,1.25,0,0,0,0,2.5Z"/><path class="cls-7" d="M45.09,119.61a1.25,1.25,0,0,0,0-2.5,1.25,1.25,0,0,0,0,2.5Z"/><path class="cls-7" d="M148,103.63a1.25,1.25,0,0,0,0-2.5,1.25,1.25,0,0,0,0,2.5Z"/><path class="cls-7" d="M128.1,97.94a1.25,1.25,0,0,0,0-2.5,1.25,1.25,0,0,0,0,2.5Z"/><path class="cls-7" d="M131.59,115.19a1.25,1.25,0,0,0,0-2.5,1.25,1.25,0,0,0,0,2.5Z"/><path class="cls-7" d="M171.59,95.19a1.25,1.25,0,0,0,0-2.5,1.25,1.25,0,0,0,0,2.5Z"/><path class="cls-7" d="M171.59,125.19a1.25,1.25,0,0,0,0-2.5,1.25,1.25,0,0,0,0,2.5Z"/><path class="cls-7" d="M181.59,105.19a1.25,1.25,0,0,0,0-2.5,1.25,1.25,0,0,0,0,2.5Z"/><path class="cls-7" d="M201.59,115.19a1.25,1.25,0,0,0,0-2.5,1.25,1.25,0,0,0,0,2.5Z"/><path class="cls-7" d="M201.59,95.19a1.25,1.25,0,0,0,0-2.5,1.25,1.25,0,0,0,0,2.5Z"/><path class="cls-7" d="M251.59,95.19a1.25,1.25,0,0,0,0-2.5,1.25,1.25,0,0,0,0,2.5Z"/><path class="cls-7" d="M221.59,95.19a1.25,1.25,0,0,0,0-2.5,1.25,1.25,0,0,0,0,2.5Z"/><path class="cls-7" d="M241.59,125.19a1.25,1.25,0,0,0,0-2.5,1.25,1.25,0,0,0,0,2.5Z"/><path class="cls-7" d="M291.59,95.19a1.25,1.25,0,0,0,0-2.5,1.25,1.25,0,0,0,0,2.5Z"/><path class="cls-7" d="M228.59,115.19a1.25,1.25,0,0,0,0-2.5,1.25,1.25,0,0,0,0,2.5Z"/><path class="cls-7" d="M271.59,105.19a1.25,1.25,0,0,0,0-2.5,1.25,1.25,0,0,0,0,2.5Z"/><path class="cls-7" d="M21.59,115.19a1.25,1.25,0,0,0,0-2.5,1.25,1.25,0,0,0,0,2.5Z"/><path class="cls-7" d="M91,94.49A1.25,1.25,0,0,0,91,92a1.25,1.25,0,0,0,0,2.5Z"/><g id="dust"><path class="cls-8" d="M116.34,84.15c-3.63-8.93-11.77-15.93-21.51-17a21.54,21.54,0,0,0-8,.65l1.69.69c-3-5.78-10.41-8.33-16.6-7.79l1.44,1.1a15.91,15.91,0,0,0-4.77-7,22.75,22.75,0,0,0-9.56-5.3,28,28,0,0,0-12.93,0,22,22,0,0,0-11,5.74,14.28,14.28,0,0,0-4.14,12l2.51-1.46c-4.44-3.44-10.23-3.31-15.2-1.11S9.54,71.43,7.52,76.49a34.66,34.66,0,0,0-2,9.12,1.5,1.5,0,0,0,3,0c.49-4.67,1.76-9.38,4.69-13.13A16.13,16.13,0,0,1,24.77,66a9.84,9.84,0,0,1,6.59,1.83,1.52,1.52,0,0,0,2.51-1.46,11,11,0,0,1,2.87-8.48,18,18,0,0,1,9.15-5.26,25.42,25.42,0,0,1,11.27-.51,19.44,19.44,0,0,1,8.53,4.07A20.36,20.36,0,0,1,67.55,58c.27.28.53.57.78.86l.33.41c.19.23.07.09,0,0s.11.15.17.23A15.11,15.11,0,0,1,70,61.25l.19.38c0,.11.2.49.08.18.1.26.2.53.28.81A1.52,1.52,0,0,0,72,63.72,16.86,16.86,0,0,1,80.23,65,11.49,11.49,0,0,1,86,70a1.52,1.52,0,0,0,1.7.69,19.52,19.52,0,0,1,12.23.74,23.86,23.86,0,0,1,5.4,3A25.23,25.23,0,0,1,113.45,85a1.5,1.5,0,0,0,2.89-.8Z"/><path class="cls-8" d="M86.37,84.9a9.54,9.54,0,0,0-4.89-8.5A12.41,12.41,0,0,0,70,75.92l2,.53A20.52,20.52,0,0,0,56.17,67a18.41,18.41,0,0,0-16.29,8.26,17.52,17.52,0,0,0-3.05,10.1c0,1.93,3,1.94,3,0A15.52,15.52,0,0,1,47.44,72a15.72,15.72,0,0,1,15.41-.14A17.09,17.09,0,0,1,69.5,78a1.54,1.54,0,0,0,2,.54c2.62-1.34,5.89-.86,8.41.48a6.47,6.47,0,0,1,3.41,5.91,1.5,1.5,0,0,0,3,0Z"/></g><line class="cls-9" x1="1.5" y1="86.33" x2="301.88" y2="86.33"/><g id="cosoese"><path class="cls-8" d="M172,21.41A28.84,28.84,0,0,0,139.4,41a24.85,24.85,0,0,0-.84,11.77,1.51,1.51,0,0,0,1.84,1,1.54,1.54,0,0,0,1-1.85c-1-6.17,1-12.48,4.59-17.48a25.88,25.88,0,0,1,15-9.9,25.49,25.49,0,0,1,10.18-.33,1.53,1.53,0,0,0,1.84-1,1.51,1.51,0,0,0-1-1.85Z"/><path class="cls-8" d="M162,22.58a18.43,18.43,0,0,1,.7-2.14c.08-.21-.1.21,0,0l.14-.3c.07-.15.14-.31.22-.46.17-.35.35-.69.55-1s.38-.62.58-.92.22-.32.34-.47l.15-.21c-.08.11-.08.11,0,0a15.73,15.73,0,0,1,1.57-1.7,1.52,1.52,0,0,0,0-2.12,1.54,1.54,0,0,0-2.13,0,17.94,17.94,0,0,0-5,8.53,1.5,1.5,0,0,0,2.9.8Z"/><path class="cls-8" d="M154.7,24.47a7.17,7.17,0,0,1,.43-1.36l-.16.36a8.29,8.29,0,0,1,1-1.68l-.23.3a7.82,7.82,0,0,1,.92-1A1.5,1.5,0,0,0,154.52,19a9,9,0,0,0-2.72,4.69,1.59,1.59,0,0,0,.16,1.15,1.47,1.47,0,0,0,.89.69,1.52,1.52,0,0,0,1.85-1Z"/><path class="cls-8" d="M149.34,30.24a8.59,8.59,0,0,0,5.27,2.11,1.5,1.5,0,0,0,0-3q-.31,0-.63-.06l.4.06a7.1,7.1,0,0,1-1.75-.48L153,29a7.06,7.06,0,0,1-1.57-.91l.31.24-.27-.23a1.63,1.63,0,0,0-1.06-.44,1.54,1.54,0,0,0-1.06.44,1.47,1.47,0,0,0-.44,1.06,1.44,1.44,0,0,0,.44,1.06Z"/><path class="cls-8" d="M143.69,32.51a1.65,1.65,0,0,1-.18-.32l.16.36a1.55,1.55,0,0,1-.13-.48l.05.4a2.35,2.35,0,0,1,0-.53l-.06.4a2.13,2.13,0,0,1,.14-.51l-.15.36a2,2,0,0,1,.23-.4,1.12,1.12,0,0,0,.18-.56,1.22,1.22,0,0,0,0-.6,1.5,1.5,0,0,0-1.84-1l-.36.15a1.45,1.45,0,0,0-.54.53,2.93,2.93,0,0,0-.43.89c0,.1-.06.2-.08.3s-.07.45-.08.68a1.51,1.51,0,0,0,0,.3,3.87,3.87,0,0,0,.1.67,4.35,4.35,0,0,0,.25.63,2.09,2.09,0,0,0,.16.29,1.65,1.65,0,0,0,.89.69,1.73,1.73,0,0,0,1.16-.16,1.5,1.5,0,0,0,.69-.89,1.52,1.52,0,0,0-.15-1.16Z"/><path class="cls-8" d="M142.39,52.85a32.81,32.81,0,0,1,9.38-12.34,31.79,31.79,0,0,1,24.6-6.57,1.54,1.54,0,0,0,1.84-1,1.5,1.5,0,0,0-1-1.84,35.07,35.07,0,0,0-18.47,2,34.79,34.79,0,0,0-18.9,18.28,1.55,1.55,0,0,0,.54,2,1.5,1.5,0,0,0,2-.54Z"/><path class="cls-8" d="M147.2,46c.29-.08.59-.14.89-.2,0,0,.5-.07.31,0s.27,0,.32,0a11.36,11.36,0,0,1,1.75,0l.45,0c.43,0-.31-.06.12,0l.89.18c.29.07.58.16.87.25l.37.13.24.1a1.73,1.73,0,0,0,1.16.15,1.54,1.54,0,0,0,.89-.69,1.51,1.51,0,0,0-.53-2,13,13,0,0,0-8.53-.73,1.5,1.5,0,1,0,.8,2.89Z"/><path class="cls-8" d="M163.55,33.66l2.91-3.93a1.56,1.56,0,0,0,.15-1.16,1.59,1.59,0,0,0-.69-.9,1.56,1.56,0,0,0-1.16-.15,1.74,1.74,0,0,0-.89.69L161,32.15a1.5,1.5,0,0,0,.54,2.05,1.47,1.47,0,0,0,1.16.15,1.69,1.69,0,0,0,.89-.69Z"/><path class="cls-8" d="M172.7,32.57a11.34,11.34,0,0,1,1.13-1.06c.08-.07.44-.33.07-.07l.29-.21.65-.44a12.12,12.12,0,0,1,1.32-.72l.36-.17c.18-.08-.29.12-.11.05l.2-.08q.38-.15.75-.27a1.5,1.5,0,1,0-.8-2.89,14.29,14.29,0,0,0-6,3.73,1.5,1.5,0,1,0,2.12,2.13Z"/><path class="cls-8" d="M140.16,54.71a64.84,64.84,0,0,0,32.71-1.85,65,65,0,0,0,8.7-3.55,1.5,1.5,0,0,0-1.52-2.59,61.56,61.56,0,0,1-30.34,6.2,59.93,59.93,0,0,1-8.76-1.1,1.53,1.53,0,0,0-1.84,1,1.51,1.51,0,0,0,1,1.84Z"/><path class="cls-8" d="M176.49,49.94a30.71,30.71,0,0,1,8.65-10.53,1.51,1.51,0,0,0,0-2.12,1.54,1.54,0,0,0-2.12,0,32.69,32.69,0,0,0-9.12,11.14,1.5,1.5,0,1,0,2.59,1.51Z"/><path class="cls-8" d="M162.49,52.8a11.31,11.31,0,0,1,.48-1.6s.1-.18.09-.22-.13.29,0,.09.12-.26.19-.39a8,8,0,0,1,.41-.76c.14-.23.28-.46.44-.68s.16-.24.25-.35-.19.22-.06.07l.15-.18a10.83,10.83,0,0,1,1.2-1.24,1.51,1.51,0,0,0,0-2.12,1.53,1.53,0,0,0-2.12,0A12.64,12.64,0,0,0,159.59,52a1.5,1.5,0,1,0,2.9.8Z"/><path class="cls-8" d="M167.2,55.26a15.94,15.94,0,0,0,5.66,3.08,1.5,1.5,0,0,0,.8-2.9,13.15,13.15,0,0,1-1.45-.51l.36.15a15.59,15.59,0,0,1-1.82-.93c-.29-.18-.57-.37-.85-.57l-.21-.15s-.25-.19-.05,0,0,0-.08-.07l-.23-.19a1.61,1.61,0,0,0-1.06-.44,1.54,1.54,0,0,0-1.07.44,1.52,1.52,0,0,0,0,2.12Z"/><path class="cls-8" d="M145.79,56.54a16.16,16.16,0,0,0,8,6.84,1.51,1.51,0,0,0,1.85-1.05,1.55,1.55,0,0,0-1-1.84l-.16-.07.11,0-.21-.09-.55-.27a10.2,10.2,0,0,1-1-.57c-.32-.19-.63-.4-.93-.62l-.22-.16c-.15-.11.21.17,0,0l-.47-.39a15.39,15.39,0,0,1-1.6-1.63,1.84,1.84,0,0,1-.17-.22l-.11-.13.1.13c-.11-.06-.26-.35-.33-.45-.23-.33-.45-.68-.66-1a1.51,1.51,0,0,0-2-.54,1.53,1.53,0,0,0-.54,2Z"/><path class="cls-8" d="M138.88,53.69c4.16,9.22,12.45,16.52,22.43,18.69a28.28,28.28,0,0,0,16-1A24.43,24.43,0,0,0,189.06,62a22.89,22.89,0,0,0,3.67-16,1.51,1.51,0,0,0-1.84-1,1.55,1.55,0,0,0-1,1.85c1.3,8.72-4.32,17.61-12.33,21.24-8.84,4-19.37,1.75-26.82-4a30.65,30.65,0,0,1-9.22-11.92,1.51,1.51,0,0,0-2.05-.54,1.53,1.53,0,0,0-.54,2Z"/><path class="cls-8" d="M192.52,55.44a26.24,26.24,0,0,0,8.73-9.34,1.5,1.5,0,1,0-2.59-1.52,24,24,0,0,1-1.57,2.51l-.22.3-.14.19-.15.19-.23.28c-.32.39-.65.77-1,1.15a26.16,26.16,0,0,1-2.09,2l-.56.46-.15.12-.29.22c-.41.3-.83.59-1.26.86a1.5,1.5,0,0,0,1.52,2.59Z"/><path class="cls-8" d="M187.65,61.92c.13.32-.07-.19-.09-.25s-.09-.24-.13-.37-.18-.57-.26-.87-.12-.51-.17-.76-.06-.34-.08-.51c-.06-.33,0,.24,0-.12a15.92,15.92,0,0,1-.07-1.69c0-.3,0-.61,0-.91,0-.13,0-.26.05-.39-.05.37,0-.18,0-.24a1.5,1.5,0,1,0-2.89-.8,14.72,14.72,0,0,0,1,8.42,1.5,1.5,0,0,0,2.05.54,1.54,1.54,0,0,0,.54-2Z"/><path class="cls-8" d="M165.63,71.29q.26-.75.54-1.5l.3-.74c0-.07.22-.54.06-.17l.16-.36c.43-1,.91-2,1.42-2.92a1.5,1.5,0,1,0-2.59-1.52,42.92,42.92,0,0,0-2.78,6.42,1.5,1.5,0,0,0,1,1.84,1.53,1.53,0,0,0,1.85-1Z"/><path class="cls-8" d="M175.13,72.26a7.48,7.48,0,0,0,3.92,1.66,7.13,7.13,0,0,0,3.91-.69,1.5,1.5,0,0,0,.54-2.06,1.54,1.54,0,0,0-2.05-.54l-.16.08c.05,0,.3-.12.11,0l-.34.12a6.74,6.74,0,0,1-.75.17c-.19,0,.33,0,.13,0l-.18,0-.36,0c-.25,0-.51,0-.76,0l.13,0-.18,0-.35-.08c-.23-.06-.45-.17-.68-.22.05,0,.29.13.11,0l-.17-.07-.35-.2-.31-.19-.14-.1c-.16-.1.29.24.05,0a1.63,1.63,0,0,0-1.06-.44,1.5,1.5,0,0,0-1.06,2.56Z"/></g></g></g></svg>